<svg xmlns="http://www.w3.org/2000/svg" viewBox="0 0 492 152"><title>btn-rpma</title><rect width="492" height="152" style="fill:#fff"/><path d="M385.789,309.1861a22.27081,22.27081,0,0,0,17.044-21.61125c0-12.60027-10.32037-22.47033-23.49582-22.47033h-32.0531a6.171,6.171,0,0,0-6.237,6.23835V331.337a6.17056,6.17056,0,0,0,6.237,6.23745,6.00212,6.00212,0,0,0,6.23745-6.03132V310.04279h16.50912l23.90181,25.11789a7.64107,7.64107,0,0,0,5.38364,2.43216c0.05537,0.001.11083,0.002,0.1658,0.002a5.61536,5.61536,0,0,0,4.0148-1.53454,4.97449,4.97449,0,0,0,1.64538-3.66239,6.83681,6.83681,0,0,0-1.99351-4.89928Zm4.56957-21.61125c0,6.12512-4.53213,10.403-11.02142,10.403H353.5215V277.16845h25.81565C385.82645,277.16845,390.35857,281.44784,390.35857,287.57485Z" transform="translate(-274 -215)" style="fill:#babcbe"/><path d="M468.11194,265.10452H436.05935a6.17162,6.17162,0,0,0-6.2384,6.23835V331.337a6.17117,6.17117,0,0,0,6.2384,6.23745,6.001,6.001,0,0,0,6.23548-6.03132V312.09765h25.81712A23.49656,23.49656,0,0,0,468.11194,265.10452Zm0,34.9287H442.29482V277.16845h25.81712c6.89867,0,11.02152,5.81244,11.02152,11.43189C479.13346,294.22018,475.01061,300.03322,468.11194,300.03322Z" transform="translate(-274 -215)" style="fill:#babcbe"/><path d="M582.77587,264.69415c-2.51681,0-3.80529.882-5.92238,2.99908l-24.28111,24.68033-24.28888-24.6867c-2.10932-2.11072-3.3973-2.99271-5.9155-2.99271a6.17037,6.17037,0,0,0-6.237,6.23685v60.406a6.2372,6.2372,0,1,0,12.4744,0V285.93675l18.25268,18.4385,0.00438,0.00388c2.11221,2.11022,3.40079,2.99231,5.91461,2.99231,2.51531,0,3.80329-.88209,5.92675-3.005l17.83355-18.38991V331.337a6.23745,6.23745,0,1,0,12.4749,0V270.931A6.17025,6.17025,0,0,0,582.77587,264.69415Z" transform="translate(-274 -215)" style="fill:#babcbe"/><path d="M689.19708,326.84906L628.3896,267.68685c-2.11032-2.11072-3.3988-2.99271-5.9156-2.99271a6.17025,6.17025,0,0,0-6.23645,6.23685v60.406a6.237,6.237,0,1,0,12.4739,0V316.20725H660.0396l18.98161,18.37487c2.11121,2.11022,3.3988,2.99231,5.91451,2.99231A6.19081,6.19081,0,0,0,689.19708,326.84906Zm-41.69561-22.70624h-18.79V285.86624Z" transform="translate(-274 -215)" style="fill:#babcbe"/><path d="M583.39337,238.95188c2.68012,0,4.40437,1.53165,4.40437,4.21128a9.71076,9.71076,0,0,1-1.15146,4.02118l-34.0739,33.8356-34.07479-33.8356a9.69584,9.69584,0,0,1-1.15145-4.02118c0-2.67962,1.72275-4.21128,4.40436-4.21128h61.64287Z" transform="translate(-274 -215)" style="fill:#bed630"/></svg>