<?xml version="1.0" encoding="UTF-8" standalone="no"?>
<!-- Created with Inkscape (http://www.inkscape.org/) -->
<svg
   xmlns:svg="http://www.w3.org/2000/svg"
   xmlns="http://www.w3.org/2000/svg"
   version="1.0"
   width="448.62399"
   height="138.14999"
   viewBox="0 0 792 612"
   id="root"
   xml:space="preserve"><g
     id="g3947"><path
       d="M 477.03353,587.95758 C 474.75962,599.83042 483.44183,603.42818 492.12394,603.42818 C 497.29194,603.42818 506.80096,601.84517 508.66146,592.49077 C 511.76217,576.58842 467.73122,588.46127 472.48572,563.49229 C 474.96633,550.54013 488.81644,544.92745 500.18595,544.92745 C 508.86816,544.92745 526.64588,549.31684 523.54517,565.72295 L 512.38236,567.23402 C 514.03607,557.8797 507.42115,553.41837 499.15235,553.41837 C 493.15754,553.41837 485.09554,555.21729 483.64853,562.91666 C 480.75443,577.37988 525.19888,567.09013 520.44437,592.34688 C 517.75706,605.87476 502.87335,611.99104 489.02314,611.99104 C 474.96633,611.99104 463.39011,605.5869 465.04382,589.3967 L 477.03353,587.95758"
       style="fill:#221e1f;fill-rule:nonzero;stroke:none"
       id="path35" /><path
       d="M 581.42624,572.27098 C 582.25314,561.90928 577.91203,553.41837 565.92242,553.41837 C 555.17301,553.41837 547.3177,562.55686 544.8371,572.27098 L 581.42624,572.27098 z M 543.18339,580.83384 C 540.70279,593.57017 545.4573,603.42818 558.06711,603.42818 C 567.57612,603.42818 574.39783,598.67908 578.73893,589.18078 L 589.28154,590.47602 C 582.25314,604.79535 570.05673,611.99104 555.99991,611.99104 C 536.36169,612.42278 528.09298,597.16801 531.60718,578.96297 C 535.74149,558.2395 547.9379,544.92745 568.81642,544.92745 C 588.86814,544.92745 595.68985,559.4627 592.17564,578.31531 L 591.55545,580.83384 L 543.18339,580.83384"
       style="fill:#221e1f;fill-rule:nonzero;stroke:none"
       id="path37" /><path
       d="M 611.19367,546.51054 L 621.32288,546.51054 L 619.87587,554.49768 L 620.08258,554.49768 C 625.04378,549.31684 632.48569,544.92745 639.9275,544.92745 C 646.74921,544.92745 654.39781,547.73383 656.25831,556.00883 C 662.04642,549.67664 671.14202,544.92745 677.96373,544.92745 C 688.29964,544.92745 697.80866,549.46072 694.29445,568.16945 L 686.02574,610.40803 L 675.06963,610.40803 L 683.33834,567.59382 C 684.99214,559.75056 682.30483,555.0734 674.65623,555.0734 C 667.83452,555.0734 657.91202,558.81513 656.05161,568.45731 L 647.98951,610.40803 L 637.03349,610.40803 L 645.3022,567.59382 C 646.74921,559.75056 644.2686,555.0734 636.4133,555.0734 C 629.59159,555.0734 619.87587,558.81513 618.01538,568.45731 L 609.74666,610.40803 L 598.79056,610.40803 L 611.19367,546.51054"
       style="fill:#221e1f;fill-rule:nonzero;stroke:none"
       id="path39" /><path
       d="M 720.96108,515.20937 L 731.91719,515.20937 L 729.64329,527.80181 L 718.68718,527.80181 L 720.96108,515.20937 z M 714.96627,546.51054 L 725.92238,546.51054 L 713.51927,610.40803 L 702.56316,610.40803 L 714.96627,546.51054"
       style="fill:#221e1f;fill-rule:nonzero;stroke:none"
       id="path41" /><path
       d="M 783.18334,567.59382 C 783.39004,558.95901 777.80864,553.41837 768.91973,553.41837 C 753.41591,553.41837 746.3875,566.94625 744.3203,578.60317 C 741.8397,591.05165 744.527,603.42818 758.99731,603.42818 C 769.95333,603.42818 778.22204,597.02404 780.70274,586.2306 L 792.27895,587.16603 C 787.52444,602.63672 773.88103,611.99104 757.75701,611.99104 C 737.29189,611.99104 728.60969,598.67908 732.33059,579.10686 C 736.25829,559.31882 750.10841,544.92745 770.57353,544.92745 C 784.01015,544.92745 794.96626,551.83527 795.17296,566.44247 L 783.18334,567.59382"
       style="fill:#221e1f;fill-rule:nonzero;stroke:none"
       id="path43" /><path
       d="M 828.24789,603.42818 C 844.16521,603.42818 850.57351,589.0369 852.64062,578.45929 C 854.70782,567.88168 853.67422,553.41837 837.9637,553.41837 C 822.25308,553.41837 815.63808,567.88168 813.57088,578.45929 C 811.50377,589.0369 812.53728,603.42818 828.24789,603.42818 z M 839.6174,544.92745 C 859.25562,544.92745 868.14453,559.03096 864.42362,578.45929 C 860.70272,597.81559 846.23241,611.99104 826.59418,611.99104 C 807.16266,611.99104 798.06706,597.81559 801.78796,578.45929 C 805.71557,559.03096 820.18588,544.92745 839.6174,544.92745"
       style="fill:#221e1f;fill-rule:nonzero;stroke:none"
       id="path45" /><path
       d="M 883.64844,546.51054 L 894.60446,546.51054 L 892.95075,555.0734 L 893.15746,555.0734 C 898.53216,548.66926 905.56057,544.92745 913.82928,544.92745 C 926.64579,544.92745 935.328,550.54013 932.0205,568.31342 L 923.75178,610.40803 L 912.79568,610.40803 L 920.85769,569.39274 C 922.92489,558.38338 917.75689,555.0734 910.10837,555.0734 C 899.77246,555.0734 891.71045,561.62142 889.64325,571.91118 L 882.20135,610.40803 L 871.24533,610.40803 L 883.64844,546.51054"
       style="fill:#221e1f;fill-rule:nonzero;stroke:none"
       id="path47" /><path
       d="M 969.84994,602.63672 C 984.11346,602.63672 992.17555,591.12359 994.44945,578.45929 C 996.93006,565.72295 991.96876,554.28186 979.35895,554.28186 C 965.09543,554.28186 957.24012,565.72295 954.75952,578.45929 C 952.27891,591.12359 955.79312,602.63672 969.84994,602.63672 z M 998.99717,610.40803 L 988.04115,610.40803 L 989.48816,602.78061 L 989.07475,602.78061 L 989.28146,602.78061 C 983.70005,608.82494 975.63804,611.99104 967.78274,611.99104 C 944.2169,611.99104 939.6691,595.58492 942.97651,578.45929 C 946.28402,561.33357 958.06702,544.92745 979.97914,544.92745 C 988.45456,544.92745 995.06956,548.09355 998.58377,554.49768 L 998.79047,554.49768 L 1006.4391,515.20937 L 1017.3952,515.20937 L 998.99717,610.40803"
       style="fill:#221e1f;fill-rule:nonzero;stroke:none"
       id="path49" /><path
       d="M 1067.4209,610.40803 L 1056.4649,610.40803 L 1058.1186,601.84517 L 1057.9119,601.84517 C 1052.5372,608.24931 1045.5088,611.99104 1037.2401,611.99104 C 1024.4236,611.99104 1015.7414,606.37845 1019.2556,588.60515 L 1027.3176,546.51054 L 1038.2737,546.51054 L 1030.2117,588.60515 C 1028.3512,597.6717 1033.3125,601.84517 1041.1677,601.84517 C 1051.2969,601.84517 1059.5656,595.29715 1061.4261,585.00731 L 1068.868,546.51054 L 1079.8241,546.51054 L 1067.4209,610.40803"
       style="fill:#221e1f;fill-rule:nonzero;stroke:none"
       id="path51" /><path
       d="M 1137.4985,567.59382 C 1137.4985,558.95901 1132.1238,553.41837 1123.2349,553.41837 C 1107.7311,553.41837 1100.7026,566.94625 1098.4287,578.60317 C 1095.9481,591.05165 1098.8422,603.42818 1113.3124,603.42818 C 1124.0618,603.42818 1132.3305,597.02404 1134.8111,586.2306 L 1146.5941,587.16603 C 1141.6328,602.63672 1127.9894,611.99104 1112.0721,611.99104 C 1091.4003,611.99104 1082.7181,598.67908 1086.4391,579.10686 C 1090.3667,559.31882 1104.2169,544.92745 1124.8887,544.92745 C 1138.3253,544.92745 1149.2814,551.83527 1149.4881,566.44247 L 1137.4985,567.59382"
       style="fill:#221e1f;fill-rule:nonzero;stroke:none"
       id="path53" /><path
       d="M 1158.5837,546.51054 L 1169.1263,546.51054 L 1173.054,526.57852 L 1184.0101,526.57852 L 1180.0825,546.51054 L 1192.0721,546.51054 L 1190.2117,555.86486 L 1178.4287,555.86486 L 1170.5734,596.52035 C 1169.9532,599.61451 1169.333,602.63672 1173.6741,602.63672 C 1176.1548,602.63672 1178.4287,602.13303 1180.7026,601.34149 L 1179.0489,610.69581 C 1175.1212,611.48735 1171.4002,611.99104 1167.886,611.99104 C 1156.5165,611.99104 1157.5501,606.66622 1158.9971,599.47062 L 1167.4726,555.86486 L 1156.7232,555.86486 L 1158.5837,546.51054"
       style="fill:#221e1f;fill-rule:nonzero;stroke:none"
       id="path55" /><path
       d="M 1219.7724,603.42818 C 1235.4829,603.42818 1242.0979,589.0369 1243.9584,578.45929 C 1246.0256,567.88168 1245.1987,553.41837 1229.2814,553.41837 C 1213.5708,553.41837 1206.9558,567.88168 1205.0954,578.45929 C 1203.0282,589.0369 1203.8551,603.42818 1219.7724,603.42818 z M 1230.9351,544.92745 C 1250.5734,544.92745 1259.4622,559.03096 1255.7413,578.45929 C 1252.0204,597.81559 1237.5501,611.99104 1218.1186,611.99104 C 1198.4804,611.99104 1189.3848,597.81559 1193.3124,578.45929 C 1197.0334,559.03096 1211.5036,544.92745 1230.9351,544.92745"
       style="fill:#221e1f;fill-rule:nonzero;stroke:none"
       id="path57" /><path
       d="M 1274.9661,546.51054 L 1285.9222,546.51054 L 1283.8551,557.44795 L 1284.0618,557.44795 C 1290.8835,548.81315 1297.9119,545.71899 1308.868,545.71899 L 1306.5941,557.73572 C 1304.5269,557.59184 1301.2194,557.44795 1299.3589,557.44795 C 1288.8163,557.44795 1281.9946,567.23402 1280.5476,574.57359 L 1273.5191,610.40803 L 1262.563,610.40803 L 1274.9661,546.51054"
       style="fill:#221e1f;fill-rule:nonzero;stroke:none"
       id="path59" /><path
       d="M 1351.4519,300.34692 L 1343.8033,300.34692 L 1343.8033,297.46868 L 1362.4079,297.46868 L 1362.4079,300.34692 L 1354.7594,300.34692 L 1354.7594,322.72543 L 1351.4519,322.72543 L 1351.4519,300.34692"
       style="fill:#221e1f;fill-rule:nonzero;stroke:none"
       id="path61" /><path
       d="M 1365.5087,297.46868 L 1369.8498,297.46868 L 1377.7052,317.97632 L 1385.3537,297.46868 L 1389.6948,297.46868 L 1389.6948,322.72543 L 1386.3873,322.72543 L 1386.3873,302.36175 L 1386.3873,302.36175 L 1378.9455,322.72543 L 1376.2581,322.72543 L 1369.0229,302.36175 L 1368.8162,302.36175 L 1368.8162,322.72543 L 1365.5087,322.72543 L 1365.5087,297.46868"
       style="fill:#221e1f;fill-rule:nonzero;stroke:none"
       id="path63" /><path
       d="M -399.86548,91.600831 L -300.22725,31.732924 L -361.41587,5.1050004e-006 L -461.05409,59.867912 L -399.86548,91.600831"
       style="fill:#f2511a;fill-rule:nonzero;stroke:none"
       id="path65" /><path
       d="M -308.08255,139.37998 L -208.44434,79.440128 L -269.63295,47.707209 L -369.27116,107.57512 L -308.08255,139.37998"
       style="fill:#fbbc09;fill-rule:nonzero;stroke:none"
       id="path67" /><path
       d="M -216.29963,187.08718 L -116.66143,127.21927 L -177.85003,95.414501 L -277.48824,155.28241 L -216.29963,187.08718"
       style="fill:#f2511a;fill-rule:nonzero;stroke:none"
       id="path69" /><path
       d="M -353.7673,269.62146 L -254.12908,209.75355 L -315.11098,178.02072 L -414.74919,237.88863 L -353.7673,269.62146"
       style="fill:#fbbc09;fill-rule:nonzero;stroke:none"
       id="path71" /><path
       d="M -261.98437,317.40069 L -162.34615,257.53279 L -223.32805,225.72793 L -322.96627,285.59583 L -261.98437,317.40069"
       style="fill:#f2511a;fill-rule:nonzero;stroke:none"
       id="path73" /><path
       d="M -491.02824,352.22768 L -391.39003,292.35977 L -452.57864,260.55491 L -552.01014,320.42282 L -491.02824,352.22768"
       style="fill:#f2511a;fill-rule:nonzero;stroke:none"
       id="path75" /><path
       d="M -399.24532,399.93488 L -299.6071,340.06698 L -360.79572,308.33415 L -460.22722,368.20205 L -399.24532,399.93488"
       style="fill:#fbbc09;fill-rule:nonzero;stroke:none"
       id="path77" /><path
       d="M -536.50627,482.5411 L -437.07476,422.6732 L -498.05667,390.86834 L -597.69488,450.73624 L -536.50627,482.5411"
       style="fill:#f2511a;fill-rule:nonzero;stroke:none"
       id="path79" /><path
       d="M -88.754454,338.12417 L -116.66143,338.12417 L -110.25313,305.59979 L -82.552899,305.59979 L -79.038694,287.97038 C -75.111041,267.67865 -63.121379,238.46426 -18.056783,238.46426 C -6.4805699,238.46426 9.4367456,240.19124 15.638301,242.56579 L 8.1964434,281.20644 L -6.6872721,281.20644 C -15.782881,281.20644 -25.498641,283.9408 -27.359094,294.08675 L -29.632997,305.59979 L 2.8217413,305.59979 L -3.37977,338.12417 L -36.041299,338.12417 L -63.948232,482.5411 L -116.66143,482.5411 L -88.754454,338.12417"
       style="fill:#221e1f;fill-rule:nonzero;stroke:none"
       id="path81" /><path
       d="M 27.214515,302.21778 L 80.134417,302.21778 L 76.620212,320.49476 C 90.263581,309.70132 110.7287,302.86544 129.74677,301.49826 L 121.06461,348.27004 L 115.0698,348.98964 C 82.821723,352.73137 69.385057,358.12813 65.457403,378.132 L 45.19903,482.5411 L -7.7208721,482.5411 L 27.214515,302.21778"
       style="fill:#221e1f;fill-rule:nonzero;stroke:none"
       id="path83" /><path
       d="M 994.24266,394.75404 L 956.61993,404.8999 C 942.76981,408.64163 929.53989,413.67859 926.64579,428.28579 C 923.95849,442.53318 934.7078,448.64955 947.52432,448.64955 C 968.19623,448.64955 986.38736,434.68993 991.76206,407.27445 L 994.24266,394.75404 z M 1035.3796,444.90782 C 1032.899,457.42824 1030.6251,471.31583 1032.6923,482.5411 L 983.90675,482.5411 C 983.07994,476.42474 983.28665,469.94866 984.11346,463.83238 L 983.49335,463.83238 C 971.91714,478.07977 943.80341,487.21826 924.78538,487.21826 C 890.26336,487.21826 868.14453,468.29371 874.75954,433.68255 C 883.23495,390.36465 921.06439,375.03794 980.18585,366.90682 L 1000.0308,364.24441 L 1002.9249,349.34935 C 1005.6122,335.74962 995.89646,329.99305 981.63285,329.99305 C 964.68194,329.99305 955.37962,336.10933 949.17811,354.09854 L 898.32537,354.09854 C 910.10837,302.21778 959.10062,297.46868 983.49335,297.46868 C 1032.6923,297.46868 1061.2194,308.98172 1053.7775,349.63721 L 1035.3796,444.90782"
       style="fill:#221e1f;fill-rule:nonzero;stroke:none"
       id="path85" /><path
       d="M 1066.5941,482.5411 L 1113.3124,241.19861 L 1166.2323,241.19861 L 1119.514,482.5411 L 1066.5941,482.5411"
       style="fill:#221e1f;fill-rule:nonzero;stroke:none"
       id="path87" /><path
       d="M 224.42377,336.10933 C 239.51419,336.10933 257.08525,344.24045 253.57105,370.64855 L 181.83982,370.64855 C 188.66153,346.9748 209.1266,336.10933 224.42377,336.10933 z M 206.646,448.64955 C 189.69508,448.64955 169.85016,437.78408 176.05167,403.17292 L 300.08265,403.17292 C 310.62526,347.62246 298.01545,297.46868 232.27907,297.46868 C 177.29202,297.46868 136.56848,334.09458 124.37211,397.77616 C 114.44965,448.64955 139.46253,487.21826 195.48319,487.21826 C 235.79328,487.21826 267.62791,471.31583 292.64083,437.42428 L 255.63825,418.21187 C 237.03358,438.8634 225.87082,448.64955 206.646,448.64955"
       style="fill:#221e1f;fill-rule:nonzero;stroke:none"
       id="path89" /><path
       d="M 421.83977,336.10933 C 437.13689,336.10933 454.50121,344.24045 451.1937,370.64855 L 379.25573,370.64855 C 386.28423,346.9748 406.74935,336.10933 421.83977,336.10933 z M 404.26866,448.64955 C 387.31783,448.64955 367.26611,437.78408 373.67442,403.17292 L 497.70535,403.17292 C 508.24796,347.62246 495.43145,297.46868 429.69507,297.46868 C 374.91472,297.46868 334.19118,334.09458 321.99477,397.77616 C 312.07235,448.64955 337.08528,487.21826 393.10594,487.21826 C 433.41598,487.21826 465.25061,471.31583 490.05674,437.42428 L 453.0542,418.21187 C 434.44958,438.8634 423.49347,448.64955 404.26866,448.64955"
       style="fill:#221e1f;fill-rule:nonzero;stroke:none"
       id="path91" /><path
       d="M 1260.2891,336.10933 C 1275.5863,336.10933 1292.9507,344.24045 1289.6432,370.64855 L 1217.7052,370.64855 C 1224.7336,346.9748 1245.1987,336.10933 1260.2891,336.10933 z M 1242.7181,448.64955 C 1225.7672,448.64955 1205.7155,437.78408 1212.1238,403.17292 L 1336.1547,403.17292 C 1346.4906,347.62246 1333.8808,297.46868 1268.1444,297.46868 C 1213.3641,297.46868 1172.6405,334.09458 1160.2375,397.77616 C 1150.5217,448.64955 1175.5346,487.21826 1231.5553,487.21826 C 1271.8653,487.21826 1303.7,471.31583 1328.5062,437.42428 L 1291.5036,418.21187 C 1272.8989,438.8634 1261.9428,448.64955 1242.7181,448.64955"
       style="fill:#221e1f;fill-rule:nonzero;stroke:none"
       id="path93" /><path
       d="M 822.66649,421.37796 C 810.47017,440.73426 796.82675,446.56277 780.70274,446.56277 C 752.58901,446.56277 744.3203,423.17688 750.31511,392.37949 C 756.30992,361.51006 771.60713,338.12417 801.78796,338.12417 C 809.84997,338.12417 827.00759,343.23307 831.55539,365.32373 L 874.75954,339.27543 C 863.18332,309.48541 836.5166,297.46868 803.23497,297.46868 C 753.41591,297.46868 706.90426,332.72741 695.32805,392.37949 C 683.75184,453.03885 714.34617,487.21826 768.09292,487.21826 C 802.82156,487.21826 835.8965,468.29371 857.60192,439.583 L 822.66649,421.37796"
       style="fill:#221e1f;fill-rule:nonzero;stroke:none"
       id="path95" /><path
       d="M 579.15234,349.99701 C 581.01283,340.85852 591.34874,336.10933 604.57875,336.10933 C 620.90947,336.10933 641.5813,342.5855 650.05671,354.60223 L 694.50115,327.90636 C 670.52183,306.96697 640.7544,297.46868 614.70787,297.46868 C 578.11874,297.46868 535.12138,315.09809 526.23248,360.50268 C 514.03607,424.54406 625.04378,402.16555 619.66917,430.30063 C 616.36167,446.56277 596.10325,448.64955 587.21434,448.64955 C 563.23502,448.64955 548.5581,438.8634 535.53479,423.46474 L 494.60455,448.07383 C 515.27637,475.70522 540.70279,487.21826 578.11874,487.21826 C 617.39527,487.21826 662.66652,470.30846 671.76213,422.88902 C 684.99214,355.39378 573.15753,380.86636 579.15234,349.99701"
       style="fill:#221e1f;fill-rule:nonzero;stroke:none"
       id="path97" /></g></svg>