<?xml version="1.0" encoding="UTF-8" standalone="no"?>
<!-- Created with Inkscape (http://www.inkscape.org/) -->

<svg
   xmlns:dc="http://purl.org/dc/elements/1.1/"
   xmlns:cc="http://creativecommons.org/ns#"
   xmlns:rdf="http://www.w3.org/1999/02/22-rdf-syntax-ns#"
   xmlns:svg="http://www.w3.org/2000/svg"
   xmlns="http://www.w3.org/2000/svg"
   xmlns:sodipodi="http://sodipodi.sourceforge.net/DTD/sodipodi-0.dtd"
   xmlns:inkscape="http://www.inkscape.org/namespaces/inkscape"
   width="390.62646mm"
   height="97.501373mm"
   viewBox="0 0 1384.1095 345.47731"
   id="svg4191"
   version="1.1"
   inkscape:version="0.91 r13725"
   sodipodi:docname="Ingenu Logo Vector Only.svg">
  <defs
     id="defs4193" />
  <sodipodi:namedview
     id="base"
     pagecolor="#ffffff"
     bordercolor="#666666"
     borderopacity="1.0"
     inkscape:pageopacity="0.0"
     inkscape:pageshadow="2"
     inkscape:zoom="0.35"
     inkscape:cx="1384.1976"
     inkscape:cy="-358.68991"
     inkscape:document-units="px"
     inkscape:current-layer="layer1"
     showgrid="false"
     fit-margin-top="0"
     fit-margin-left="0"
     fit-margin-right="0"
     fit-margin-bottom="0"
     inkscape:window-width="1920"
     inkscape:window-height="1017"
     inkscape:window-x="1912"
     inkscape:window-y="-8"
     inkscape:window-maximized="1" />
  <metadata
     id="metadata4196">
    <rdf:RDF>
      <cc:Work
         rdf:about="">
        <dc:format>image/svg+xml</dc:format>
        <dc:type
           rdf:resource="http://purl.org/dc/dcmitype/StillImage" />
        <dc:title></dc:title>
      </cc:Work>
    </rdf:RDF>
  </metadata>
  <g
     inkscape:label="Layer 1"
     inkscape:groupmode="layer"
     id="layer1"
     transform="translate(1446.3405,171.80503)">
    <path
       style="fill:#000000"
       d="m -1353.2379,172.73471 c -33.1813,-3.8446 -62.5806,-24.8202 -77.0177,-54.95 -2.2212,-4.6356 -5.2624,-12.9284 -6.758,-18.428397 l -2.7195,-10 -0.032,-82.2212995 -0.032,-82.2214305 2.2778,-2.27862 c 2.2145,-2.21527 2.8183,-2.27862 21.7222,-2.27862 18.8999,0 19.5083,0.0638 21.7222,2.27719 l 2.2778,2.27718 0.5,80.7228005 0.5,80.7227995 2.7738,7 c 5.5008,13.881897 15.5973,24.245997 28.8321,29.596197 8.2254,3.3251 24.4574,3.8388 33.5956,1.0631 15.9787,-4.8533 28.0439,-16.7754 33.5578,-33.159297 2.1612,-6.4217 2.195,-7.5296 2.8073,-91.9999995 0.6806,-93.8882805 0.5027,-91.1447105 7.0038,-107.9999735 8.7311,-22.63696 26.4864,-41.90051 48.4296,-52.54373 4.95,-2.40092 12.375,-5.27034 16.5,-6.37649 57.3029,-15.36628 113.4013,18.00415 125.1064,74.420223 1.7327,8.351 1.8683,14.82293 1.8805,89.7499705 0.013,79.4256995 -0.02,80.7827995 -1.9869,82.7499995 -1.8654,1.8654 -3.3333,2 -21.8089,2 -15.5258,0 -20.2285,-0.3068 -21.75,-1.4189 -1.8863,-1.3788 -1.9556,-3.7019 -2.4544,-82.2499995 -0.503,-79.2222305 -0.5553,-80.9415005 -2.6266,-86.3791705 -6.5612,-17.224393 -16.9145,-27.748653 -32.4445,-32.980343 -7.2582,-2.44512 -20.2553,-2.92478 -28.3003,-1.04442 -12.9612,3.02944 -27.1923,14.38849 -32.8792,26.243823 -6.3554,13.24892 -6.0862,9.11233 -6.7243,103.3290105 -0.5674,83.7849995 -0.6373,86.1951995 -2.7125,93.5790995 -11.4968,40.907697 -43.5266,68.156797 -85.6337,72.851997 -10.6813,1.191 -12.9158,1.186 -23.6074,-0.053 z m 223.6918,-9.1234 -13.75,-8.0224 0,-17.2869 0,-17.2869 14.1055,-8.0794 c 7.758,-4.4436 14.5201,-8.0794 15.0269,-8.0794 0.5067,0 7.4173,3.7125 15.3569,8.25 l 14.4356,8.25 0.026,17 0.026,17.0001 -14.4702,8.25 c -7.9586,4.5375 -15.0408,8.1999 -15.7383,8.1386 -0.6975,-0.061 -7.4557,-3.7214 -15.0182,-8.1337 z m 204.25002,-78.872797 c -17.68054,-2.0235 -37.52689,-9.0497 -53.75641,-19.0314 -11.99818,-7.3792 -31.71521,-27.0962 -39.09441,-39.0943 -15.0521,-24.4737995 -21.9204,-52.8977 -19.2429,-79.6344 3.2583,-32.53638 15.5864,-58.594083 38.42619,-81.221053 12.9561,-12.83538 28.68447,-22.68045 45.97912,-28.78036 41.04081,-14.47529 85.76824,-7.3547 121.9758,19.41852 8.68033,6.41855 11.33238,9.93274 10.19658,13.51132 -0.31183,0.98249 -6.53653,7.95591 -13.83268,15.49649 -15.2079,15.717413 -13.79135,15.300073 -24.46341,7.20728 -7.85819,-5.95898 -20.05211,-12.00173 -29.18788,-14.46418 -9.01096,-2.42881 -30.02604,-2.42297 -39,0.0108 -15.15962,4.11141 -31.07703,14.60828 -41.29745,27.233953 -6.15095,7.5985 -13.12505,21.68877 -15.82142,31.96512 -2.9278,11.15841 -2.93924,29.85121 -0.025,40.77371 2.49091,9.3357 9.43782,23.0985005 15.62145,30.9481005 8.70778,11.0538995 22.9567,20.8991995 37.12806,25.6536995 17.14184,5.7512 40.71041,4.5904 61.01032,-3.0048 l 5.384,-2.0144 0,-14.3578 0,-14.35769951 -15.58895,-0.3204 -15.58891,-0.3204 -2.41105,-2.80569999 c -2.32399,-2.7045 -2.41105,-3.3662 -2.41105,-18.3270005 l 0,-15.5211 2.92308,-2.9231 2.92307,-2.9231 35.65385,0 35.65385,0 2.92307,2.9231 2.92308,2.9231 0,46.5118 c 0,27.4674 -0.39518,47.5512 -0.96513,49.0503 -2.04481,5.3783 -33.20162,18.2312 -54.53487,22.497 -19.09261,3.8177 -35.74375,4.7802 -51.5,2.9769 z m 746.33412,-0.3629 c -21.5398,-3.9083 -39.0903,-13.3091 -54.4433,-29.1622 -11.6872,-12.0678 -19.2308,-25.2057 -24.051,-41.8869 l -2.3031,-7.9701995 -0.3007,-84.1519505 -0.3007,-84.151993 2.6672,-2.09801 c 2.4952,-1.9627 3.8869,-2.09802 21.5778,-2.09802 18.7446,0 18.9322,0.0215 21.3652,2.45455 l 2.4545,2.45454 0.015,77.795463 c 0.012,65.05742 0.2564,78.8205205 1.4908,84.05572049 6.6145,28.05439951 33.7561,44.45209951 62.4013,37.69999951 18.0036,-4.2438 32.1318,-18.8015 36.5875,-37.69999951 1.2344,-5.23519999 1.4785,-18.99830049 1.4908,-84.05572049 l 0.015,-77.795463 2.4545,-2.45454 c 2.433,-2.433 2.6206,-2.45455 21.365196,-2.45455 17.6909,0 19.0826,0.13532 21.5778,2.09802 l 2.6672,2.09801 -0.3007,84.151993 -0.3007,84.1519505 -2.3061,7.9999995 c -10.5556,36.6173 -38.889996,62.9055 -75.940096,70.4558 -11.5541,2.3546 -26.765,2.5808 -37.883,0.5635 z m -564.83412,-2.6635 c -4.68854,-2.5891 -4.5,2.6102 -4.5,-124.0923 l 0,-119.854383 2.45455,-2.45454 2.45454,-2.45455 74.59092,0 74.5909,0 2.4546,2.45455 c 2.4128,2.4128 2.4545,2.74252 2.4545,19.38921 0,15.18216 -0.1978,17.17898 -1.9112,19.29546 l -1.9112,2.36078 -54.0888,0.27517 -54.08881,0.27518 0,28.474823 0,28.47483 44.88921,0 c 42.6886,0 45.005,0.0936 47.25,1.90943 2.2784,1.84274 2.372,2.47534 2.6813,18.12274 0.348,17.6066 -0.3022,20.955 -4.4351,22.8381 -1.7227,0.7849 -15.8957,1.1297 -46.4325,1.1297 l -43.95291,0 0,30.5000005 0,30.4999995 53.54551,0 53.5454,0 2.4546,2.4546 c 2.4128,2.4128 2.4545,2.7425 2.4545,19.3892 0,15.1829 -0.1977,17.1789 -1.9114,19.2955 l -1.9114,2.3607 -74.3386,0.2302 c -52.77047,0.1633 -74.91888,-0.09 -76.33861,-0.8744 z m 223.90501,-2.9616 c -1.8412,-2.0353 -1.9041,-4.8554 -1.879,-84.2499995 l 0.026,-82.1441705 2.6331,-9.61888 c 4.8046,-17.551453 12.0392,-30.773793 23.489,-42.929583 9.0678,-9.62701 17.8946,-16.19977 28.8258,-21.46493 38.72081,-18.65034 85.06831,-11.00878 115.04531,18.96813 14.3385,14.33856 22.9935,30.97726 26.9427,51.795623 1.27,6.69492 1.512,20.72634 1.512,87.6715105 0,78.8262995 -0.022,79.7249995 -2.039,81.8895995 -1.9659,2.1102 -2.7534,2.1885 -22,2.1885 -18.6277,0 -20.0946,-0.1336 -21.961,-2 -1.9652,-1.9651 -2.0003,-3.3452 -2.0174,-79.24999951 -0.019,-85.70046049 0.01,-85.26299049 -6.4716,-97.59716049 -10.0763,-19.175253 -29.7568,-28.955813 -52.5003,-26.090943 -14.8218,1.86702 -29.30041,11.49963 -35.90201,23.88566 -7.0859,13.294493 -6.5479,6.047893 -7.1047,95.6981435 -0.4845,78.0101995 -0.5776,81.2270995 -2.409,83.2499995 -1.8166,2.0067 -2.8416,2.1043 -22.095,2.1043 -19.2584,0 -20.2779,-0.097 -22.095,-2.1058 z m -911.90503,-190.312493 -14,-8.1962 -0.2722,-17.4765 -0.2722,-17.47649 14.4758,-8.32456 14.4758,-8.32456 14.7964,8.48073 14.7964,8.48072 0.2729,16.94925 0.2728,16.94925 -14.6707,8.42834 c -8.0689,4.63559 -14.9417,8.49086 -15.2728,8.56728 -0.3312,0.0764 -6.9022,-3.54935 -14.6022,-8.05726 z"
       id="path4147"
       inkscape:connector-curvature="0" />
  </g>
</svg>
