<?xml version="1.0" encoding="UTF-8" standalone="no"?>
<!-- Created with Inkscape (http://www.inkscape.org/) -->

<svg
   xmlns:dc="http://purl.org/dc/elements/1.1/"
   xmlns:cc="http://creativecommons.org/ns#"
   xmlns:rdf="http://www.w3.org/1999/02/22-rdf-syntax-ns#"
   xmlns:svg="http://www.w3.org/2000/svg"
   xmlns="http://www.w3.org/2000/svg"
   xmlns:sodipodi="http://sodipodi.sourceforge.net/DTD/sodipodi-0.dtd"
   xmlns:inkscape="http://www.inkscape.org/namespaces/inkscape"
   width="176.11714mm"
   height="67.280785mm"
   viewBox="0 0 624.03712 238.39648"
   id="svg7676"
   version="1.1"
   inkscape:version="0.91 r13725"
   sodipodi:docname="ublox vector.svg">
  <defs
     id="defs7678" />
  <sodipodi:namedview
     id="base"
     pagecolor="#ffffff"
     bordercolor="#666666"
     borderopacity="1.0"
     inkscape:pageopacity="0.0"
     inkscape:pageshadow="2"
     inkscape:zoom="0.49497475"
     inkscape:cx="1244.6321"
     inkscape:cy="260.65216"
     inkscape:document-units="px"
     inkscape:current-layer="layer1"
     showgrid="false"
     fit-margin-top="0"
     fit-margin-left="0"
     fit-margin-right="0"
     fit-margin-bottom="0"
     inkscape:window-width="1920"
     inkscape:window-height="1017"
     inkscape:window-x="1912"
     inkscape:window-y="-8"
     inkscape:window-maximized="1" />
  <metadata
     id="metadata7681">
    <rdf:RDF>
      <cc:Work
         rdf:about="">
        <dc:format>image/svg+xml</dc:format>
        <dc:type
           rdf:resource="http://purl.org/dc/dcmitype/StillImage" />
        <dc:title></dc:title>
      </cc:Work>
    </rdf:RDF>
  </metadata>
  <g
     inkscape:label="Layer 1"
     inkscape:groupmode="layer"
     id="layer1"
     transform="translate(-60.587891,-550.31641)">
    <g
       id="g8252">
      <path
         id="path8237"
         d="M 179.78711,550.31641 A 119.198,119.198 0 0 0 60.587891,669.51367 119.198,119.198 0 0 0 179.78711,788.71289 a 119.198,119.198 0 0 0 88.66406,-39.7207 c -1.45547,-9.8e-4 -3.00676,-0.009 -4.22461,0.0137 -4.42592,0 -4.58398,-0.10303 -4.58398,-3 0,-3.64887 -0.84257,-3.72487 -5.5918,-0.50195 -5.3251,3.6137 -10.77196,4.93397 -20.4082,4.95117 -18.81611,0.0337 -29.90358,-8.23043 -35.32227,-26.32813 -1.77251,-5.91995 -2.03007,-10.4153 -2.42578,-42.37109 l -0.44141,-35.75 13.59376,0 13.5957,0 0,29.86328 c 0,31.58542 0.65493,38.43881 4.14062,43.33398 5.73673,8.05652 19.95441,8.93797 26.79688,1.66211 5.24995,-5.58248 5.4615,-7.05999 6.03125,-42.11328 0.2928,-18.01409 0.86875,-32.752 1.28125,-32.75 0.4125,0.002 6.36974,0.004 13.23828,0.004 l 12.48828,0 0.26172,38.75 0.084,12.43555 0,24.14453 A 119.198,119.198 0 0 0 298.98438,669.51367 119.198,119.198 0 0 0 179.78711,550.31641 Z m -22.33008,51.01171 a 19.950512,19.950512 0 0 1 19.95117,19.95118 19.950512,19.950512 0 0 1 -1.7207,8.07422 c -0.37272,0.94747 -0.82459,1.83911 -1.36523,2.67968 0.008,-0.0721 0.0316,-0.13962 0.043,-0.21093 a 19.950512,19.950512 0 0 1 -16.9082,9.4082 19.950512,19.950512 0 0 1 -19.94922,-19.95117 19.950512,19.950512 0 0 1 19.94922,-19.95118 z"
         style="opacity:1;fill:#ed1b2f;fill-opacity:1;stroke:none;stroke-width:1;stroke-linecap:round;stroke-linejoin:round;stroke-miterlimit:4;stroke-dasharray:none;stroke-dashoffset:0;stroke-opacity:1"
         inkscape:connector-curvature="0" />
      <path
         id="path8235"
         d="m 453.91406,605.5293 c -0.42373,0.0134 -6.73398,3.05482 -14.02148,6.75781 l -13.25,6.73242 0,64.32617 c 0,35.3794 0.31186,64.63804 0.69336,65.01953 0.38149,0.38147 6.69107,0.56835 14.02148,0.41602 l 13.32813,-0.27539 0,-71.5 c -6.8e-4,-39.325 -0.34777,-71.48996 -0.77149,-71.47656 z m -113.00976,0.17382 c -0.99469,0.0378 -6.96394,2.65233 -13.86914,6.09376 l -13.39258,6.67382 0,65.26758 0,65.26758 14,0 14,0 0,-2.56836 0,-2.56836 2.75,1.86719 c 4.52059,3.06883 8.44106,4.49021 14.25,5.16601 7.32365,0.85202 16.40053,-0.43263 21.9668,-3.10742 9.246,-4.44304 17.10945,-14.86672 21.71484,-28.78906 2.61481,-7.90467 2.536,-33.71497 -0.13086,-43 -4.92347,-17.1418 -13.85367,-27.3419 -27.48242,-31.38867 -10.13191,-3.00846 -22.13452,-1.26106 -30.04688,4.37304 l -3.02148,2.15039 0,-22.40039 c 0,-12.32078 -0.27297,-22.67532 -0.60742,-23.00976 -0.0209,-0.0209 -0.0645,-0.0299 -0.13086,-0.0273 z m 184.30859,37.13477 c -4.01339,-0.0361 -8.11237,0.46861 -12.2207,1.5625 -16.09179,4.2846 -29.89024,19.10656 -34.18555,36.7207 -8.50905,34.89385 11.55241,68.12148 42.33594,70.12305 34.14712,2.22026 57.97339,-30.33749 49.98633,-68.30664 -5.03873,-23.95324 -24.24372,-39.90486 -45.91602,-40.09961 z m 143.25195,2.32031 c -1.98896,0.0113 -4.17297,0.0346 -6.46093,0.0723 l -16.64063,0.27539 -6.60937,11.70508 c -5.9487,10.53403 -9.02698,14.07993 -9.15625,10.54492 -0.0251,-0.6875 -2.8815,-5.975 -6.34571,-11.75 l -6.29687,-10.5 -16.15625,-0.27539 c -8.9767,-0.15267 -16.15625,0.12078 -16.15625,0.61523 0,0.48942 6.75,11.07659 15,23.52735 8.25,12.45076 15,23.02015 15,23.48828 0,0.46814 -8.1,13.08327 -18,28.0332 -9.9,14.94992 -18,27.39111 -18,27.64649 0,0.25538 7.3125,0.4636 16.25,0.46289 l 16.25,-0.002 7.63476,-12.24804 c 4.19856,-6.73679 8.62158,-14.21425 9.83008,-16.61719 1.20851,-2.40294 2.51917,-3.97794 2.91211,-3.5 0.39294,0.47794 4.95743,7.95664 10.14258,16.61914 l 9.42773,15.75 16.76758,0 16.76758,0 -16.12695,-24.25 c -8.86951,-13.3375 -17.18967,-25.81725 -18.49024,-27.73242 -1.30058,-1.91518 -2.36523,-3.78334 -2.36523,-4.15039 0,-0.36704 6.975,-11.10663 15.5,-23.86719 8.525,-12.76056 15.5,-23.39198 15.5,-23.625 0,-0.17474 -4.21084,-0.25643 -10.17774,-0.22266 z m -311.0957,24.0586 c 6.16209,-0.15778 12.01735,2.89363 14.98633,8.78906 6.31301,12.53563 4.80946,36.29298 -2.75586,43.54102 -2.54691,2.44008 -3.91667,2.90354 -9.22461,3.12304 -7.70681,0.31869 -11.62292,-0.8262 -15.62891,-4.56836 l -3.10351,-2.89844 0,-19.99609 0,-19.99414 3.47265,-3.04883 c 3.67716,-3.22858 8.03774,-4.83931 12.25391,-4.94726 z m 166.20313,0.89843 c 0.84691,-0.009 1.74684,0.0188 2.70898,0.0801 5.34048,0.34006 6.81108,0.86202 9.43555,3.35547 6.27847,5.965 7.42578,9.59003 7.42578,23.45508 0,10.90367 -0.27542,13.01082 -2.1582,16.5 -2.86242,5.30466 -7.2133,9.31588 -11.41016,10.51953 -13.55748,3.88823 -23.93164,-7.44859 -23.93164,-26.15234 0,-9.36093 1.62729,-16.05257 5.05273,-20.78125 3.63433,-5.01705 6.94857,-6.9101 12.87696,-6.97657 z"
         style="fill:#000000"
         inkscape:connector-curvature="0" />
    </g>
  </g>
</svg>
